<svg xmlns="http://www.w3.org/2000/svg" xmlns:xlink="http://www.w3.org/1999/xlink" width="500" zoomAndPan="magnify" viewBox="0 0 375 374.999991" height="500" preserveAspectRatio="xMidYMid meet" version="1.0"><defs><g/><clipPath id="15a1a349f8"><path d="M 234.375 70.617188 L 323.625 70.617188 L 323.625 159.867188 L 234.375 159.867188 Z M 234.375 70.617188 " clip-rule="nonzero"/></clipPath><clipPath id="42e41260a7"><rect x="0" width="54" y="0" height="103"/></clipPath></defs><path fill="#2196f3" d="M 187.5 375 C 290.769531 375 375 290.769531 375 187.5 C 375 84.230469 290.769531 0 187.5 0 C 84.230469 0 0 84.230469 0 187.5 C 0 290.769531 84.230469 375 187.5 375 Z M 187.5 375 " fill-opacity="1" fill-rule="evenodd"/><path fill="#ffffff" d="M 218.242188 191.738281 L 306.882812 254.632812 L 306.882812 259.3125 C 306.882812 262.355469 304.402344 264.835938 301.347656 264.835938 L 73.652344 264.835938 C 70.597656 264.835938 68.113281 262.355469 68.113281 259.3125 L 68.113281 254.632812 L 156.757812 191.738281 L 170.941406 201.796875 C 175.96875 205.367188 181.738281 207.15625 187.5 207.15625 C 193.261719 207.15625 199.027344 205.367188 204.054688 201.796875 Z M 68.117188 128.851562 L 68.117188 246.164062 L 150.789062 187.5 Z M 306.882812 246.164062 L 306.882812 128.851562 L 224.210938 187.5 Z M 301.347656 110.164062 L 73.652344 110.164062 C 70.597656 110.164062 68.113281 112.648438 68.113281 115.703125 L 68.113281 120.378906 L 174.941406 196.164062 C 182.570312 201.585938 192.429688 201.585938 200.054688 196.164062 L 306.882812 120.378906 L 306.882812 115.703125 C 306.882812 112.648438 304.402344 110.164062 301.347656 110.164062 Z M 301.347656 110.164062 " fill-opacity="1" fill-rule="nonzero"/><g clip-path="url(#15a1a349f8)"><path fill="#ff3131" d="M 279.117188 70.617188 C 303.832031 70.617188 323.859375 90.644531 323.859375 115.359375 C 323.859375 140.074219 303.832031 160.101562 279.117188 160.101562 C 254.402344 160.101562 234.375 140.074219 234.375 115.359375 C 234.375 90.644531 254.402344 70.617188 279.117188 70.617188 Z M 279.117188 70.617188 " fill-opacity="1" fill-rule="nonzero"/></g><g transform="matrix(1, 0, 0, 1, 252, 63)"><g clip-path="url(#42e41260a7)"><g fill="#ffffff" fill-opacity="1"><g transform="translate(0.905554, 80.080165)"><g><path d="M 26.1875 0.765625 C 21.8125 0.765625 18.003906 -0.203125 14.765625 -2.140625 C 11.523438 -4.085938 9.003906 -7.113281 7.203125 -11.21875 C 5.410156 -15.332031 4.515625 -20.53125 4.515625 -26.8125 C 4.515625 -33.09375 5.410156 -38.285156 7.203125 -42.390625 C 9.003906 -46.503906 11.523438 -49.535156 14.765625 -51.484375 C 18.003906 -53.429688 21.8125 -54.40625 26.1875 -54.40625 C 30.59375 -54.40625 34.414062 -53.429688 37.65625 -51.484375 C 40.894531 -49.535156 43.410156 -46.503906 45.203125 -42.390625 C 47.003906 -38.285156 47.90625 -33.09375 47.90625 -26.8125 C 47.90625 -20.53125 47.003906 -15.332031 45.203125 -11.21875 C 43.410156 -7.113281 40.894531 -4.085938 37.65625 -2.140625 C 34.414062 -0.203125 30.59375 0.765625 26.1875 0.765625 Z M 26.1875 -8.21875 C 28.582031 -8.21875 30.585938 -8.796875 32.203125 -9.953125 C 33.816406 -11.117188 35.054688 -13.070312 35.921875 -15.8125 C 36.796875 -18.550781 37.234375 -22.21875 37.234375 -26.8125 C 37.234375 -31.40625 36.796875 -35.070312 35.921875 -37.8125 C 35.054688 -40.550781 33.816406 -42.5 32.203125 -43.65625 C 30.585938 -44.820312 28.582031 -45.40625 26.1875 -45.40625 C 23.789062 -45.40625 21.785156 -44.820312 20.171875 -43.65625 C 18.554688 -42.5 17.316406 -40.550781 16.453125 -37.8125 C 15.585938 -35.070312 15.15625 -31.40625 15.15625 -26.8125 C 15.15625 -22.21875 15.585938 -18.550781 16.453125 -15.8125 C 17.316406 -13.070312 18.554688 -11.117188 20.171875 -9.953125 C 21.785156 -8.796875 23.789062 -8.21875 26.1875 -8.21875 Z M 26.1875 -8.21875 "/></g></g></g></g></g></svg>